<svg width="71" height="71" viewBox="0 0 71 71" fill="none" xmlns="http://www.w3.org/2000/svg">
<path fill-rule="evenodd" clip-rule="evenodd" d="M35.5 0C25.8588 0 24.6499 0.0408661 20.8634 0.213631C17.0848 0.385973 14.5042 0.986143 12.2462 1.86378C9.91172 2.77087 7.93197 3.98474 5.95828 5.95828C3.98472 7.93197 2.77086 9.91172 1.86378 12.2462C0.986141 14.5042 0.385975 17.0849 0.213631 20.8634C0.0408661 24.6499 0 25.8588 0 35.5003C0 45.1413 0.0408661 46.3502 0.213631 50.1368C0.385975 53.9152 0.986141 56.496 1.86378 58.7539C2.77086 61.0885 3.98472 63.0683 5.95828 65.0418C7.93197 67.0153 9.91172 68.2292 12.2462 69.1365C14.5042 70.014 17.0848 70.6141 20.8634 70.7866C24.6499 70.9592 25.8588 71 35.5 71C45.1413 71 46.3502 70.9592 50.1366 70.7866C53.9152 70.6141 56.4957 70.014 58.7539 69.1365C61.0882 68.2292 63.068 67.0153 65.0418 65.0418C67.0153 63.0683 68.2292 61.0885 69.1365 58.7539C70.014 56.496 70.6141 53.9152 70.7863 50.1368C70.9592 46.3502 71 45.1413 71 35.5003C71 25.8588 70.9592 24.6499 70.7863 20.8634C70.6141 17.0849 70.014 14.5042 69.1365 12.2462C68.2292 9.91172 67.0153 7.93197 65.0418 5.95828C63.068 3.98474 61.0882 2.77087 58.7539 1.86378C56.4957 0.986143 53.9152 0.385973 50.1366 0.213631C46.3502 0.0408661 45.1413 0 35.5 0ZM23.6667 35.5003C23.6667 42.0355 28.9646 47.3335 35.5 47.3335C42.0355 47.3335 47.3335 42.0355 47.3335 35.5003C47.3335 28.9646 42.0355 23.6667 35.5 23.6667C28.9646 23.6667 23.6667 28.9646 23.6667 35.5003ZM17.2703 35.5003C17.2703 25.432 25.432 17.2703 35.5 17.2703C45.568 17.2703 53.7297 25.432 53.7297 35.5003C53.7297 45.568 45.568 53.7297 35.5 53.7297C25.432 53.7297 17.2703 45.568 17.2703 35.5003ZM54.45 20.81C56.8029 20.81 58.7101 18.9028 58.7101 16.5501C58.7101 14.1973 56.8029 12.29 54.45 12.29C52.0974 12.29 50.1901 14.1973 50.1901 16.5501C50.1901 18.9028 52.0974 20.81 54.45 20.81Z" fill="#43586C"/>
</svg>
