<svg width="71" height="71" viewBox="0 0 71 71" fill="none" xmlns="http://www.w3.org/2000/svg">
<path fill-rule="evenodd" clip-rule="evenodd" d="M60.6549 10.3174C54.0399 3.69074 45.0348 -0.0247823 35.6492 0.000124417C16.1625 0.000124417 0.303416 15.7814 0.296637 35.1795C0.288314 41.3532 1.91607 47.4198 5.01571 52.7677L0 71L18.7407 66.1079C23.9235 68.9185 29.7317 70.391 35.634 70.391H35.6492C55.1323 70.391 70.993 54.608 70.9998 35.21C71.0301 25.8705 67.305 16.9071 60.6549 10.3174ZM51.7658 42.5396C50.8827 42.0992 46.54 39.974 45.7297 39.6718C44.9195 39.37 44.3313 39.2315 43.7432 40.1122C43.155 40.9928 41.4616 42.9716 40.9463 43.5587C40.431 44.1455 39.9157 44.218 39.0323 43.778C38.1492 43.3377 35.3033 42.4097 31.9285 39.4156C29.3028 37.084 27.5212 34.2062 27.0127 33.3256C26.5042 32.445 26.9585 31.9759 27.4009 31.5306C27.7975 31.1376 28.284 30.5049 28.7247 29.9906C29.1654 29.476 29.3146 29.1116 29.6077 28.5246C29.9012 27.9375 29.7552 27.4247 29.5349 26.9844C29.3146 26.5441 27.5466 22.2171 26.811 20.4576C26.094 18.7437 25.3668 18.9748 24.8244 18.9394C24.3158 18.9141 23.7192 18.909 23.1293 18.909C22.2241 18.9326 21.37 19.3313 20.7731 20.0089C19.9646 20.8895 17.683 23.015 17.683 27.342C17.683 31.6691 20.8477 35.8492 21.2884 36.4363C21.7292 37.0234 27.5178 45.9018 36.3747 49.7108C38.0196 50.4169 39.7005 51.0362 41.4108 51.5665C43.5261 52.2412 45.4517 52.1418 46.9738 51.9157C48.669 51.6627 52.1999 49.7884 52.937 47.7353C53.6745 45.6825 53.673 43.9212 53.4458 43.5552C53.2186 43.1891 52.6489 42.9867 51.7658 42.5464V42.5396Z" fill="#43586C"/>
</svg>
