<svg width="915" height="388" viewBox="0 0 915 388" fill="none" xmlns="http://www.w3.org/2000/svg">
<path d="M150.37 117.185H129.315C118.085 117.185 108.259 126.302 108.259 136.72C108.259 147.139 118.085 156.255 129.315 156.255C140.544 156.255 150.37 165.371 150.37 175.789C150.37 186.208 140.544 195.324 129.315 195.324H108.259" stroke="#CF7CAE" stroke-width="20" stroke-miterlimit="10" stroke-linecap="round" stroke-linejoin="round"/>
<path d="M192.481 195.324V136.72C192.481 126.302 202.307 117.185 213.537 117.185C224.766 117.185 234.592 126.302 234.592 136.72V195.324" stroke="#CF7CAE" stroke-width="20" stroke-miterlimit="10" stroke-linecap="round" stroke-linejoin="round"/>
<path d="M192.481 156.255H234.592" stroke="#CF7CAE" stroke-width="20" stroke-miterlimit="10" stroke-linecap="round" stroke-linejoin="round"/>
<path d="M276.703 117.185V195.324H318.814" stroke="#CF7CAE" stroke-width="20" stroke-miterlimit="10" stroke-linecap="round" stroke-linejoin="round"/>
<path d="M389 117.185H360.926V195.324H389" stroke="#CF7CAE" stroke-width="20" stroke-miterlimit="10" stroke-linecap="round" stroke-linejoin="round"/>
<path d="M389 156.255H360.926" stroke="#CF7CAE" stroke-width="20" stroke-miterlimit="10" stroke-linecap="round" stroke-linejoin="round"/>
<path d="M332.852 247.417L94.2222 377.648L164.407 247.417H10L122.296 13H346.889L304.778 78.1157" stroke="#CF7CAE" stroke-width="20" stroke-miterlimit="10" stroke-linecap="round" stroke-linejoin="round"/>
<path d="M469.216 13.4H476.992V47H469.216V13.4ZM453.952 47H446.176V13.4H453.952V47ZM469.792 33.224H453.376V26.648H469.792V33.224ZM484.834 47V21.176H492.274V36.536L504.85 21.176H511.714V47H504.274V31.64L491.746 47H484.834ZM524.433 47V25.592L526.113 27.32H515.697V21.176H540.609V27.32H530.193L531.873 25.592V47H524.433ZM556.146 47.384C553.202 47.384 550.61 46.808 548.37 45.656C546.162 44.504 544.45 42.936 543.234 40.952C542.018 38.936 541.41 36.648 541.41 34.088C541.41 31.496 542.002 29.208 543.186 27.224C544.402 25.208 546.05 23.64 548.13 22.52C550.21 21.368 552.562 20.792 555.186 20.792C557.714 20.792 559.986 21.336 562.002 22.424C564.05 23.48 565.666 25.016 566.85 27.032C568.034 29.016 568.626 31.4 568.626 34.184C568.626 34.472 568.61 34.808 568.578 35.192C568.546 35.544 568.514 35.88 568.482 36.2H547.506V31.832H564.546L561.666 33.128C561.666 31.784 561.394 30.616 560.85 29.624C560.306 28.632 559.554 27.864 558.594 27.32C557.634 26.744 556.514 26.456 555.234 26.456C553.954 26.456 552.818 26.744 551.826 27.32C550.866 27.864 550.114 28.648 549.57 29.672C549.026 30.664 548.754 31.848 548.754 33.224V34.376C548.754 35.784 549.058 37.032 549.666 38.12C550.306 39.176 551.186 39.992 552.306 40.568C553.458 41.112 554.802 41.384 556.338 41.384C557.714 41.384 558.914 41.176 559.938 40.76C560.994 40.344 561.954 39.72 562.818 38.888L566.802 43.208C565.618 44.552 564.13 45.592 562.338 46.328C560.546 47.032 558.482 47.384 556.146 47.384ZM574.366 47V21.176H587.566C590.798 21.176 593.326 21.768 595.15 22.952C596.974 24.104 597.886 25.736 597.886 27.848C597.886 29.96 597.022 31.624 595.294 32.84C593.598 34.024 591.342 34.616 588.526 34.616L589.294 32.888C592.43 32.888 594.766 33.464 596.302 34.616C597.87 35.768 598.654 37.448 598.654 39.656C598.654 41.928 597.79 43.72 596.062 45.032C594.334 46.344 591.694 47 588.142 47H574.366ZM581.23 41.912H587.518C588.894 41.912 589.918 41.688 590.59 41.24C591.294 40.76 591.646 40.04 591.646 39.08C591.646 38.088 591.326 37.368 590.686 36.92C590.046 36.44 589.038 36.2 587.662 36.2H581.23V41.912ZM581.23 31.784H586.894C588.206 31.784 589.182 31.544 589.822 31.064C590.494 30.584 590.83 29.896 590.83 29C590.83 28.072 590.494 27.384 589.822 26.936C589.182 26.488 588.206 26.264 586.894 26.264H581.23V31.784ZM616.321 47.384C613.569 47.384 611.121 46.808 608.977 45.656C606.865 44.504 605.185 42.936 603.937 40.952C602.721 38.936 602.113 36.648 602.113 34.088C602.113 31.496 602.721 29.208 603.937 27.224C605.185 25.208 606.865 23.64 608.977 22.52C611.121 21.368 613.569 20.792 616.321 20.792C619.041 20.792 621.473 21.368 623.617 22.52C625.761 23.64 627.441 25.192 628.657 27.176C629.873 29.16 630.481 31.464 630.481 34.088C630.481 36.648 629.873 38.936 628.657 40.952C627.441 42.936 625.761 44.504 623.617 45.656C621.473 46.808 619.041 47.384 616.321 47.384ZM616.321 41.24C617.569 41.24 618.689 40.952 619.681 40.376C620.673 39.8 621.457 38.984 622.033 37.928C622.609 36.84 622.897 35.56 622.897 34.088C622.897 32.584 622.609 31.304 622.033 30.248C621.457 29.192 620.673 28.376 619.681 27.8C618.689 27.224 617.569 26.936 616.321 26.936C615.073 26.936 613.953 27.224 612.961 27.8C611.969 28.376 611.169 29.192 610.561 30.248C609.985 31.304 609.697 32.584 609.697 34.088C609.697 35.56 609.985 36.84 610.561 37.928C611.169 38.984 611.969 39.8 612.961 40.376C613.953 40.952 615.073 41.24 616.321 41.24ZM635.631 47V21.176H643.071V36.536L655.647 21.176H662.511V47H655.071V31.64L642.543 47H635.631ZM648.591 18.392C645.775 18.392 643.663 17.784 642.255 16.568C640.847 15.32 640.127 13.448 640.095 10.952H644.991C645.023 12.04 645.327 12.904 645.903 13.544C646.479 14.184 647.359 14.504 648.543 14.504C649.695 14.504 650.575 14.184 651.183 13.544C651.823 12.904 652.143 12.04 652.143 10.952H657.135C657.135 13.448 656.415 15.32 654.975 16.568C653.535 17.784 651.407 18.392 648.591 18.392ZM680.039 46.952L680.423 40.808C680.615 40.84 680.807 40.872 680.999 40.904C681.191 40.904 681.367 40.904 681.527 40.904C682.423 40.904 683.127 40.648 683.639 40.136C684.151 39.624 684.535 38.936 684.791 38.072C685.047 37.176 685.223 36.168 685.319 35.048C685.447 33.928 685.543 32.76 685.607 31.544L685.991 21.176H708.071V47H700.583V25.496L702.263 27.32H690.935L692.519 25.4L692.183 31.88C692.087 34.184 691.895 36.296 691.607 38.216C691.351 40.136 690.919 41.8 690.311 43.208C689.703 44.584 688.887 45.656 687.863 46.424C686.839 47.16 685.527 47.528 683.927 47.528C683.351 47.528 682.743 47.48 682.103 47.384C681.463 47.288 680.775 47.144 680.039 46.952ZM715.272 47V21.176H722.712V36.536L735.288 21.176H742.152V47H734.712V31.64L722.184 47H715.272ZM766.726 47.576C766.662 47.576 766.486 47.576 766.198 47.576C765.91 47.576 765.638 47.576 765.382 47.576C765.126 47.576 764.95 47.576 764.854 47.576C759.254 47.48 754.918 46.28 751.846 43.976C748.774 41.672 747.238 38.344 747.238 33.992C747.238 29.704 748.758 26.44 751.798 24.2C754.87 21.928 759.27 20.776 764.998 20.744C765.062 20.744 765.222 20.744 765.478 20.744C765.766 20.744 766.038 20.744 766.294 20.744C766.55 20.744 766.71 20.744 766.774 20.744C772.566 20.744 777.046 21.864 780.214 24.104C783.414 26.344 785.014 29.64 785.014 33.992C785.014 38.408 783.414 41.784 780.214 44.12C777.046 46.424 772.55 47.576 766.726 47.576ZM766.486 41.816C769.142 41.816 771.302 41.544 772.966 41C774.63 40.424 775.846 39.56 776.614 38.408C777.414 37.224 777.814 35.752 777.814 33.992C777.814 32.296 777.43 30.904 776.662 29.816C775.894 28.696 774.662 27.864 772.966 27.32C771.302 26.776 769.142 26.504 766.486 26.504C766.39 26.504 766.198 26.504 765.91 26.504C765.622 26.504 765.43 26.504 765.334 26.504C762.774 26.504 760.694 26.792 759.094 27.368C757.494 27.944 756.326 28.776 755.59 29.864C754.854 30.952 754.486 32.328 754.486 33.992C754.486 35.72 754.854 37.16 755.59 38.312C756.326 39.464 757.494 40.328 759.094 40.904C760.694 41.48 762.774 41.784 765.334 41.816C765.43 41.816 765.622 41.816 765.91 41.816C766.198 41.816 766.39 41.816 766.486 41.816ZM762.694 56.312V11.384H769.558V56.312H762.694ZM794.667 47V25.592L796.347 27.32H785.931V21.176H810.843V27.32H800.427L802.107 25.592V47H794.667ZM814.834 47V21.176H822.274V36.536L834.85 21.176H841.714V47H834.274V31.64L821.746 47H814.834ZM848.913 47V21.176H856.353V31.256H867.585V21.176H875.073V47H867.585V37.352H856.353V47H848.913ZM882.241 47V21.176H902.929V27.32H888.001L889.681 25.688V47H882.241Z" fill="#CF7CAE"/>
<path d="M533.696 120.384C530.944 120.384 528.496 119.808 526.352 118.656C524.24 117.504 522.56 115.936 521.312 113.952C520.096 111.936 519.488 109.648 519.488 107.088C519.488 104.496 520.096 102.208 521.312 100.224C522.56 98.208 524.24 96.64 526.352 95.52C528.496 94.368 530.944 93.792 533.696 93.792C536.416 93.792 538.848 94.368 540.992 95.52C543.136 96.64 544.816 98.192 546.032 100.176C547.248 102.16 547.856 104.464 547.856 107.088C547.856 109.648 547.248 111.936 546.032 113.952C544.816 115.936 543.136 117.504 540.992 118.656C538.848 119.808 536.416 120.384 533.696 120.384ZM533.696 114.24C534.944 114.24 536.064 113.952 537.056 113.376C538.048 112.8 538.832 111.984 539.408 110.928C539.984 109.84 540.272 108.56 540.272 107.088C540.272 105.584 539.984 104.304 539.408 103.248C538.832 102.192 538.048 101.376 537.056 100.8C536.064 100.224 534.944 99.936 533.696 99.936C532.448 99.936 531.328 100.224 530.336 100.8C529.344 101.376 528.544 102.192 527.936 103.248C527.36 104.304 527.072 105.584 527.072 107.088C527.072 108.56 527.36 109.84 527.936 110.928C528.544 111.984 529.344 112.8 530.336 113.376C531.328 113.952 532.448 114.24 533.696 114.24ZM557.589 120V98.592L559.269 100.32H548.853V94.176H573.765V100.32H563.349L565.029 98.592V120H557.589ZM589.238 112.944V107.712L605.078 86.4H613.238L597.734 107.712L593.942 106.608H620.39V112.944H589.238ZM607.334 120V112.944L607.574 106.608V100.32H614.918V120H607.334ZM634.14 120.576C631.804 120.576 629.484 120.272 627.18 119.664C624.908 119.024 622.956 118.128 621.324 116.976L624.396 111.024C625.676 111.952 627.148 112.688 628.812 113.232C630.508 113.776 632.22 114.048 633.948 114.048C635.9 114.048 637.436 113.664 638.556 112.896C639.676 112.128 640.236 111.056 640.236 109.68C640.236 108.816 640.012 108.048 639.564 107.376C639.116 106.704 638.316 106.192 637.164 105.84C636.044 105.488 634.46 105.312 632.412 105.312H623.82L625.548 86.4H646.044V92.64H628.332L632.364 89.088L631.164 102.576L627.132 99.024H634.236C637.564 99.024 640.236 99.488 642.252 100.416C644.3 101.312 645.788 102.544 646.716 104.112C647.644 105.68 648.108 107.456 648.108 109.44C648.108 111.424 647.612 113.264 646.62 114.96C645.628 116.624 644.092 117.984 642.012 119.04C639.964 120.064 637.34 120.576 634.14 120.576ZM665.663 120.576C662.911 120.576 660.447 119.904 658.271 118.56C656.095 117.184 654.383 115.2 653.135 112.608C651.887 110.016 651.263 106.88 651.263 103.2C651.263 99.52 651.887 96.384 653.135 93.792C654.383 91.2 656.095 89.232 658.271 87.888C660.447 86.512 662.911 85.824 665.663 85.824C668.447 85.824 670.911 86.512 673.055 87.888C675.231 89.232 676.943 91.2 678.191 93.792C679.439 96.384 680.063 99.52 680.063 103.2C680.063 106.88 679.439 110.016 678.191 112.608C676.943 115.2 675.231 117.184 673.055 118.56C670.911 119.904 668.447 120.576 665.663 120.576ZM665.663 114C666.975 114 668.111 113.632 669.071 112.896C670.063 112.16 670.831 110.992 671.375 109.392C671.951 107.792 672.239 105.728 672.239 103.2C672.239 100.672 671.951 98.608 671.375 97.008C670.831 95.408 670.063 94.24 669.071 93.504C668.111 92.768 666.975 92.4 665.663 92.4C664.383 92.4 663.247 92.768 662.255 93.504C661.295 94.24 660.527 95.408 659.951 97.008C659.407 98.608 659.135 100.672 659.135 103.2C659.135 105.728 659.407 107.792 659.951 109.392C660.527 110.992 661.295 112.16 662.255 112.896C663.247 113.632 664.383 114 665.663 114ZM714.379 120.384C712.203 120.384 710.299 119.904 708.667 118.944C707.035 117.984 705.755 116.528 704.827 114.576C703.931 112.592 703.483 110.096 703.483 107.088C703.483 104.048 703.915 101.552 704.779 99.6C705.643 97.648 706.891 96.192 708.523 95.232C710.155 94.272 712.107 93.792 714.379 93.792C716.811 93.792 718.987 94.352 720.906 95.472C722.859 96.56 724.395 98.096 725.515 100.08C726.667 102.064 727.243 104.4 727.243 107.088C727.243 109.808 726.667 112.16 725.515 114.144C724.395 116.128 722.859 117.664 720.906 118.752C718.987 119.84 716.811 120.384 714.379 120.384ZM699.115 129.312V94.176H706.267V99.456L706.123 107.136L706.603 114.768V129.312H699.115ZM713.083 114.24C714.331 114.24 715.435 113.952 716.395 113.376C717.387 112.8 718.171 111.984 718.747 110.928C719.355 109.84 719.659 108.56 719.659 107.088C719.659 105.584 719.355 104.304 718.747 103.248C718.171 102.192 717.387 101.376 716.395 100.8C715.435 100.224 714.331 99.936 713.083 99.936C711.835 99.936 710.715 100.224 709.723 100.8C708.731 101.376 707.947 102.192 707.371 103.248C706.795 104.304 706.507 105.584 706.507 107.088C706.507 108.56 706.795 109.84 707.371 110.928C707.947 111.984 708.731 112.8 709.723 113.376C710.715 113.952 711.835 114.24 713.083 114.24ZM727.307 124.8L743.147 79.584H749.819L733.979 124.8H727.307ZM748.241 120V94.176H755.681V104.256H766.913V94.176H774.401V120H766.913V110.352H755.681V120H748.241ZM781.569 120V94.176H789.009V109.536L801.585 94.176H808.449V120H801.009V104.64L788.481 120H781.569ZM821.167 120V98.592L822.847 100.32H812.431V94.176H837.343V100.32H826.927L828.607 98.592V120H821.167ZM855.302 102.432C858.694 102.464 861.27 103.232 863.03 104.736C864.822 106.208 865.718 108.304 865.718 111.024C865.718 113.872 864.71 116.096 862.694 117.696C860.678 119.264 857.878 120.048 854.294 120.048L841.334 120V94.176H848.774V102.432H855.302ZM853.622 114.72C855.062 114.752 856.166 114.448 856.934 113.808C857.702 113.168 858.086 112.208 858.086 110.928C858.086 109.648 857.702 108.736 856.934 108.192C856.166 107.616 855.062 107.312 853.622 107.28L848.774 107.232V114.72H853.622Z" fill="#CF7CAE"/>
</svg>
